<svg xmlns="http://www.w3.org/2000/svg" xmlns:xlink="http://www.w3.org/1999/xlink" version="1.1" id="Capa_1" x="0px" y="0px" viewBox="0 0 484.4 484.4" style="enable-background:new 0 0 484.4 484.4;" xml:space="preserve">
<g>
	<g>
		<path d="M164.9,197.5c0-6.6-5.4-12-12-12H56.7c-6.6,0-12,5.4-12,12s5.4,12,12,12h96.2C159.5,209.5,164.9,204.1,164.9,197.5z"></path>
		<path d="M427.7,185.5h-96.2c-6.6,0-12,5.4-12,12s5.4,12,12,12h96.2c6.6,0,12-5.4,12-12S434.4,185.5,427.7,185.5z"></path>
		<path d="M242.2,120.2c6.6,0,12-5.4,12-12V12c0-6.6-5.4-12-12-12s-12,5.4-12,12v96.2C230.2,114.8,235.6,120.2,242.2,120.2z"></path>
		<path d="M305.3,146.4c3.1,0,6.1-1.2,8.5-3.5l68.1-68.1c4.7-4.7,4.7-12.3,0-17s-12.3-4.7-17,0l-68.1,68.1c-4.7,4.7-4.7,12.3,0,17    C299.2,145.2,302.3,146.4,305.3,146.4z"></path>
		<path d="M170.6,142.9c2.3,2.3,5.4,3.5,8.5,3.5s6.1-1.2,8.5-3.5c4.7-4.7,4.7-12.3,0-17l-68.1-68.1c-4.7-4.7-12.3-4.7-17,0    s-4.7,12.3,0,17L170.6,142.9z"></path>
		<path d="M386.4,273.2c-9.1-7.8-20.6-12.1-32.3-12.1h-10.9H304h-18.6v-48.5c0-23.2-6.9-40.1-20.6-50.2    c-21.6-15.8-50.9-6.9-52.2-6.5c-5,1.6-8.4,6.2-8.4,11.4v58.5c0,17.8-8.5,32.9-25.4,45c-12.8,9.2-25.9,13.4-27.6,13.9L150,285    c-4.5-5.1-11.1-8.3-18.5-8.3H85.9c-13.6,0-24.7,11.1-24.7,24.7V451c0,13.6,11.1,24.7,24.7,24.7h45.8c6,0,11.6-2.2,15.8-5.8    c9.2,9,21.7,14.5,35.2,14.5h45.5h4.7H326c14.4,0,27.1-3.5,36.8-10c12.4-8.4,20.1-21.7,22.3-38.7l18.5-115    C406.5,302.9,399.9,284.7,386.4,273.2z M132.4,451c0,0.4-0.3,0.7-0.7,0.7H85.9c-0.4,0-0.7-0.3-0.7-0.7V301.4    c0-0.4,0.3-0.7,0.7-0.7h45.8c0.4,0,0.7,0.3,0.7,0.7V451z M379.9,317l-18.5,115.2c0,0.1,0,0.3-0.1,0.5c-0.8,6.9-3.4,27.8-35.3,27.8    h-93.1h-4.7h-45.5c-12.8,0-24-9.6-26-22.3c-0.1-0.5-0.2-1-0.3-1.4V308.2l0.7-0.2c0.2,0,0.3-0.1,0.5-0.1c0.7-0.2,17.7-5,34.6-17.1    c23.5-16.7,36-39.2,36-65v-48.6c6.6-0.7,15.7-0.4,22.4,4.5c7.2,5.3,10.8,15.7,10.8,30.8V273c0,6.6,5.4,12,12,12H304h39.2h10.9    c6,0,11.9,2.3,16.7,6.3C378,297.5,381.4,307.3,379.9,317z"></path>
	</g>
</g>
<g>
</g>
<g>
</g>
<g>
</g>
<g>
</g>
<g>
</g>
<g>
</g>
<g>
</g>
<g>
</g>
<g>
</g>
<g>
</g>
<g>
</g>
<g>
</g>
<g>
</g>
<g>
</g>
<g>
</g>
</svg>
