<svg xmlns="http://www.w3.org/2000/svg" xmlns:xlink="http://www.w3.org/1999/xlink" version="1.1" id="Capa_1" x="0px" y="0px" viewBox="0 0 478.501 478.501" style="enable-background:new 0 0 478.501 478.501;" xml:space="preserve">
<g>
	<g>
		<path d="M417.9,209.001c0-115.2-93.7-209-208.9-209s-209,93.7-209,209c0,115.2,93.7,208.9,208.9,208.9l0,0c3.2,0,6.2-1.3,8.5-3.5    c2.3-2.3,3.5-5.3,3.5-8.5v-184.9h185C412.6,221.001,417.9,215.601,417.9,209.001z M209,197.001c-6.6,0-12,5.4-12,12v184.5    c-96.4-6.2-172.9-86.6-172.9-184.5c0-102,83-185,185-185c97.9,0,178.4,76.5,184.6,173H209z"></path>
		<path d="M466.6,257.601h-197c-6.6,0-12,5.4-12,12v196.9c0,6.6,5.4,12,12,12l0,0c55.8,0,108.3-21.7,147.7-61.2    c39.5-39.5,61.2-91.9,61.2-147.7C478.6,263.001,473.2,257.601,466.6,257.601z M281.6,454.201v-172.6h172.6    C448.2,374.101,374,448.201,281.6,454.201z"></path>
	</g>
</g>
<g>
</g>
<g>
</g>
<g>
</g>
<g>
</g>
<g>
</g>
<g>
</g>
<g>
</g>
<g>
</g>
<g>
</g>
<g>
</g>
<g>
</g>
<g>
</g>
<g>
</g>
<g>
</g>
<g>
</g>
</svg>
